<svg width="150" height="138" viewBox="0 0 150 138" fill="none" xmlns="http://www.w3.org/2000/svg">
<g filter="url(#filter0_i)">
<path d="M102.264 61.0132C102.518 59.5305 102.651 58.0054 102.651 56.449C102.651 41.8416 90.9991 30 76.6264 30C66.6557 30 57.9947 35.6988 53.6247 44.0664C50.3216 41.6854 46.2855 40.2857 41.9277 40.2857C30.7489 40.2857 21.6867 49.4959 21.6867 60.8572L21.6868 60.9088C21.2092 60.8746 20.7271 60.8571 20.241 60.8571C9.06218 60.8571 0 70.0673 0 81.4286C0 92.7841 9.05297 101.991 20.2239 102H99.759C110.938 102 120 92.7899 120 81.4286C120 70.9295 112.261 62.2674 102.264 61.0132Z" fill="#5F6A74"/>
</g>
<g filter="url(#filter1_d)">
<path fill-rule="evenodd" clip-rule="evenodd" d="M96.5108 30H120L101.109 53.1557H120L82.702 87.6L93.0423 60.7542H76.7998L96.5108 30Z" fill="#FCD341"/>
</g>
<defs>
<filter id="filter0_i" x="0" y="25" width="125" height="77" filterUnits="userSpaceOnUse" color-interpolation-filters="sRGB">
<feFlood flood-opacity="0" result="BackgroundImageFix"/>
<feBlend mode="normal" in="SourceGraphic" in2="BackgroundImageFix" result="shape"/>
<feColorMatrix in="SourceAlpha" type="matrix" values="0 0 0 0 0 0 0 0 0 0 0 0 0 0 0 0 0 0 127 0" result="hardAlpha"/>
<feOffset dx="5" dy="-5"/>
<feGaussianBlur stdDeviation="5"/>
<feComposite in2="hardAlpha" operator="arithmetic" k2="-1" k3="1"/>
<feColorMatrix type="matrix" values="0 0 0 0 0.123785 0 0 0 0 0.170615 0 0 0 0 0.191667 0 0 0 0.5 0"/>
<feBlend mode="normal" in2="shape" result="effect1_innerShadow"/>
</filter>
<filter id="filter1_d" x="26.7998" y="0" width="123.2" height="137.6" filterUnits="userSpaceOnUse" color-interpolation-filters="sRGB">
<feFlood flood-opacity="0" result="BackgroundImageFix"/>
<feColorMatrix in="SourceAlpha" type="matrix" values="0 0 0 0 0 0 0 0 0 0 0 0 0 0 0 0 0 0 127 0"/>
<feOffset dx="-10" dy="10"/>
<feGaussianBlur stdDeviation="20"/>
<feColorMatrix type="matrix" values="0 0 0 0 0.121569 0 0 0 0 0.231373 0 0 0 0 0.443137 0 0 0 0.5 0"/>
<feBlend mode="normal" in2="BackgroundImageFix" result="effect1_dropShadow"/>
<feBlend mode="normal" in="SourceGraphic" in2="effect1_dropShadow" result="shape"/>
</filter>
</defs>
</svg>
