<svg width="40" height="25" viewBox="0 0 40 25" fill="none" xmlns="http://www.w3.org/2000/svg">
<g filter="url(#filter0_i)">
<path d="M33.9949 10.9187C34.077 10.4387 34.1199 9.94508 34.1199 9.44125C34.1199 4.7128 30.3483 0.879639 25.6958 0.879639C22.4683 0.879639 19.6646 2.72436 18.2501 5.43298C17.1809 4.66222 15.8743 4.20916 14.4637 4.20916C10.8451 4.20916 7.91166 7.19051 7.91166 10.8682L7.91168 10.8849C7.75709 10.8738 7.60102 10.8682 7.44366 10.8682C3.82506 10.8682 0.891602 13.8495 0.891602 17.5272C0.891602 21.203 3.82207 24.1832 7.43814 24.1862H33.1839C36.8025 24.1862 39.7359 21.2049 39.7359 17.5272C39.7359 14.1286 37.2308 11.3247 33.9949 10.9187Z" fill="white"/>
</g>
<defs>
<filter id="filter0_i" x="0.891602" y="-4.12036" width="43.8443" height="28.3066" filterUnits="userSpaceOnUse" color-interpolation-filters="sRGB">
<feFlood flood-opacity="0" result="BackgroundImageFix"/>
<feBlend mode="normal" in="SourceGraphic" in2="BackgroundImageFix" result="shape"/>
<feColorMatrix in="SourceAlpha" type="matrix" values="0 0 0 0 0 0 0 0 0 0 0 0 0 0 0 0 0 0 127 0" result="hardAlpha"/>
<feOffset dx="5" dy="-5"/>
<feGaussianBlur stdDeviation="5"/>
<feComposite in2="hardAlpha" operator="arithmetic" k2="-1" k3="1"/>
<feColorMatrix type="matrix" values="0 0 0 0 0.282353 0 0 0 0 0.709804 0 0 0 0 0.901961 0 0 0 0.5 0"/>
<feBlend mode="normal" in2="shape" result="effect1_innerShadow"/>
</filter>
</defs>
</svg>
