<svg width="25" height="15" viewBox="0 0 25 15" fill="none" xmlns="http://www.w3.org/2000/svg">
<path d="M21.3051 6.46108C21.358 6.15219 21.3855 5.83447 21.3855 5.5102C21.3855 2.467 18.9582 0 15.9638 0C13.8866 0 12.0822 1.18725 11.1718 2.93051C10.4837 2.43445 9.64281 2.14286 8.73493 2.14286C6.40602 2.14286 4.51807 4.06164 4.51807 6.42857L4.51808 6.43934C4.41859 6.4322 4.31814 6.42857 4.21687 6.42857C1.88795 6.42857 0 8.34735 0 10.7143C0 13.08 1.88604 14.9981 4.21331 15H20.7831C23.112 15 25 13.0812 25 10.7143C25 8.52698 23.3877 6.72238 21.3051 6.46108Z" fill="#E1F6FF"/>
</svg>
